# xmcd
#
# Track frame offsets:
#        150
#        10912
#        25467
#        70267
#        90420
#        104275
#        111522
#        137972
#        150445
#        169082
#        184107
#
# Disc length: 2908 seconds
#
# Revision: 0
# Processed by: cddbd v1.5.1PL0 Copyright (c) Steve Scherf et al.
# Submitted via: ExactAudioCopy v0.95b2
#
DISCID=8d0b5a0b
DTITLE=Capsule Giants - Blue Period
DYEAR=1999
DGENRE=
TTITLE0=Dub No.8 (Blue Morning In Space)
TTITLE1=Ever Blurs (Original 7" Ver.)
TTITLE2=Hey Cow-Planet (River Phe-Mix)
TTITLE3=Don't Forget Me
TTITLE4=Wendy (7" Ver.)
TTITLE5=Hot Rod On Venus
TTITLE6=Apple Girl-506 (Jungle Ver.)
TTITLE7=Art School
TTITLE8=Since You Broke My Heart (Single Edit)
TTITLE9=The Evening Star (Flying Rum Ver.)
TTITLE10=Sad Moon and Birthday Party
EXTD=
EXTT0=
EXTT1=
EXTT2=
EXTT3=
EXTT4=
EXTT5=
EXTT6=
EXTT7=
EXTT8=
EXTT9=
EXTT10=
PLAYORDER=
